<svg xmlns="http://www.w3.org/2000/svg" xmlns:xlink="http://www.w3.org/1999/xlink" fill="none" version="1.1" width="14" height="16" viewBox="0 0 14 16"><defs><clipPath id="master_svg0_3_348"><rect x="0" y="0" width="14" height="16" rx="0"/></clipPath></defs><g clip-path="url(#master_svg0_3_348)"><g transform="matrix(1,0,0,-1,0,28.6875)"><g><path d="M0.28125,21.0625Q0,20.75,0,20.34375Q0,19.9375,0.28125,19.625L5.28125,14.625Q5.59375,14.34375,6,14.34375Q6.40625,14.34375,6.71875,14.625Q7,14.9375,7,15.34375Q7,15.75,6.71875,16.0625L3.40625,19.34375L13,19.34375Q13.4375,19.34375,13.7188,19.625Q14,19.90625,14,20.34375Q14,20.78125,13.7188,21.0625Q13.4375,21.34375,13,21.34375L3.40625,21.34375L6.71875,24.62495Q7,24.93755,7,25.34375Q7,25.74995,6.71875,26.06255Q6.40625,26.34375,6,26.34375Q5.59375,26.34375,5.28125,26.06255L0.28125,21.0625Z" fill="#4B5563" fill-opacity="1" style="mix-blend-mode:passthrough"/></g></g></g></svg>